<svg class="w-6 h-6" width="24" height="24" viewBox="0 0 24 24" fill="none" xmlns="http://www.w3.org/2000/svg"><path d="M14 12C14 10.8954 13.1046 10 12 10C10.8954 10 10 10.8954 10 12C10 13.1046 10.8954 14 12 14C13.1046 14 14 13.1046 14 12ZM16 12C16 14.2091 14.2091 16 12 16C9.79086 16 8 14.2091 8 12C8 9.79086 9.79086 8 12 8C14.2091 8 16 9.79086 16 12Z" fill="#686583" style="fill-opacity:1;"/><path d="M14.3955 2.41896C15.4005 2.00272 16.5064 1.89327 17.5733 2.10548C18.6401 2.31772 19.6195 2.8422 20.3887 3.61134C21.1578 4.38048 21.6823 5.35995 21.8945 6.42677C22.1068 7.49362 21.9973 8.59955 21.5811 9.6045C21.1811 10.5702 20.5141 11.4003 19.6602 12C20.5141 12.5997 21.1811 13.4298 21.5811 14.3955C21.9973 15.4005 22.1068 16.5064 21.8945 17.5733C21.6823 18.6401 21.1578 19.6195 20.3887 20.3887C19.6195 21.1578 18.6401 21.6823 17.5733 21.8945C16.5064 22.1068 15.4005 21.9973 14.3955 21.5811C13.4298 21.1811 12.5997 20.5141 12 19.6602C11.4003 20.5141 10.5702 21.1811 9.6045 21.5811C8.59955 21.9973 7.49362 22.1068 6.42677 21.8945C5.35995 21.6823 4.38048 21.1578 3.61134 20.3887C2.8422 19.6195 2.31772 18.6401 2.10548 17.5733C1.89327 16.5064 2.00272 15.4005 2.41896 14.3955C2.81885 13.4301 3.48523 12.5997 4.33888 12C3.48523 11.4004 2.81885 10.5699 2.41896 9.6045C2.00272 8.59955 1.89327 7.49362 2.10548 6.42677C2.31772 5.35995 2.8422 4.38048 3.61134 3.61134C4.38048 2.8422 5.35995 2.31772 6.42677 2.10548C7.49362 1.89327 8.59955 2.00272 9.6045 2.41896C10.5699 2.81885 11.4004 3.48523 12 4.33888C12.5997 3.48523 13.4301 2.81885 14.3955 2.41896ZM11 7.50001L10.9902 7.24122C10.9457 6.64017 10.7466 6.05924 10.4102 5.55568C10.0257 4.98024 9.47921 4.53154 8.83986 4.26661C8.20037 4.00173 7.49628 3.93239 6.8174 4.06739C6.13846 4.20244 5.51489 4.53592 5.0254 5.0254C4.53592 5.51489 4.20244 6.13846 4.06739 6.8174C3.93239 7.49628 4.00173 8.20037 4.26661 8.83986C4.53154 9.47921 4.98024 10.0257 5.55568 10.4102C6.13122 10.7947 6.80782 11 7.50001 11C8.0523 11 8.50001 11.4477 8.50001 12C8.50001 12.5523 8.0523 13 7.50001 13C6.80782 13 6.13122 13.2053 5.55568 13.5899C4.98024 13.9744 4.53154 14.5208 4.26661 15.1602C4.00173 15.7997 3.93239 16.5037 4.06739 17.1826C4.20244 17.8616 4.53592 18.4851 5.0254 18.9746C5.51489 19.4641 6.13846 19.7976 6.8174 19.9326C7.49628 20.0676 8.20037 19.9983 8.83986 19.7334C9.47921 19.4685 10.0257 19.0198 10.4102 18.4443C10.7947 17.8688 11 17.1922 11 16.5C11 15.9477 11.4477 15.5 12 15.5C12.5177 15.5 12.9438 15.8933 12.9951 16.3975L13 16.5L13.0098 16.7588C13.0543 17.3599 13.2534 17.9408 13.5899 18.4443C13.9744 19.0198 14.5208 19.4685 15.1602 19.7334C15.7997 19.9983 16.5037 20.0676 17.1826 19.9326C17.8616 19.7976 18.4851 19.4641 18.9746 18.9746C19.4641 18.4851 19.7976 17.8616 19.9326 17.1826C20.0676 16.5037 19.9983 15.7997 19.7334 15.1602C19.4685 14.5208 19.0198 13.9744 18.4443 13.5899C17.9408 13.2534 17.3599 13.0543 16.7588 13.0098L16.5 13L16.3975 12.9951C15.8933 12.9438 15.5 12.5177 15.5 12C15.5 11.4477 15.9477 11 16.5 11L16.7588 10.9902C17.3599 10.9457 17.9408 10.7466 18.4443 10.4102C19.0198 10.0257 19.4685 9.47921 19.7334 8.83986C19.9983 8.20037 20.0676 7.49628 19.9326 6.8174C19.7976 6.13846 19.4641 5.51489 18.9746 5.0254C18.4851 4.53592 17.8616 4.20244 17.1826 4.06739C16.5037 3.93239 15.7997 4.00173 15.1602 4.26661C14.5208 4.53154 13.9744 4.98024 13.5899 5.55568C13.2053 6.13122 13 6.80782 13 7.50001L12.9951 7.60255C12.9438 8.10668 12.5177 8.50001 12 8.50001C11.4823 8.50001 11.0562 8.10668 11.0049 7.60255L11 7.50001Z" fill="#686583" style="fill-opacity:1;"/><path d="M11 9V7.5C11 6.94772 11.4477 6.5 12 6.5C12.5523 6.5 13 6.94772 13 7.5V9C13 9.55228 12.5523 10 12 10C11.4477 10 11 9.55228 11 9Z" fill="#686583" style="fill-opacity:1;"/><path d="M9 11C9.55228 11 10 11.4477 10 12C10 12.5523 9.55228 13 9 13H7.5C6.94772 13 6.5 12.5523 6.5 12C6.5 11.4477 6.94772 11 7.5 11H9Z" fill="#686583" style="fill-opacity:1;"/><path d="M16.5 11C17.0523 11 17.5 11.4477 17.5 12C17.5 12.5523 17.0523 13 16.5 13H15C14.4477 13 14 12.5523 14 12C14 11.4477 14.4477 11 15 11H16.5Z" fill="#686583" style="fill-opacity:1;"/><path d="M11 16.5V15C11 14.4477 11.4477 14 12 14C12.5523 14 13 14.4477 13 15V16.5C13 17.0523 12.5523 17.5 12 17.5C11.4477 17.5 11 17.0523 11 16.5Z" fill="#686583" style="fill-opacity:1;"/><path d="M7.29298 7.29298C7.65909 6.92686 8.2381 6.90427 8.63087 7.22462L8.70704 7.29298L10.5869 9.17286L10.6553 9.24903C10.9757 9.64181 10.9531 10.2208 10.5869 10.5869C10.2208 10.9531 9.64181 10.9757 9.24903 10.6553L9.17286 10.5869L7.29298 8.70704L7.22462 8.63087C6.90427 8.2381 6.92686 7.65909 7.29298 7.29298Z" fill="#686583" style="fill-opacity:1;"/><path d="M15.2929 7.29296C15.6834 6.90245 16.3164 6.90249 16.7069 7.29296C17.0975 7.68348 17.0975 8.31649 16.7069 8.70702L14.827 10.5869C14.4365 10.9774 13.8035 10.9774 13.413 10.5869C13.0225 10.1964 13.0225 9.56334 13.413 9.17284L15.2929 7.29296Z" fill="#686583" style="fill-opacity:1;"/><path d="M9.17284 13.413C9.56334 13.0225 10.1964 13.0225 10.5869 13.413C10.9774 13.8035 10.9774 14.4365 10.5869 14.827L8.70702 16.7069C8.31649 17.0975 7.68348 17.0975 7.29296 16.7069C6.90249 16.3164 6.90245 15.6834 7.29296 15.2929L9.17284 13.413Z" fill="#686583" style="fill-opacity:1;"/><path d="M13.413 13.413C13.7791 13.0469 14.3581 13.0243 14.7509 13.3446L14.827 13.413L16.7069 15.2929L16.7753 15.369C17.0957 15.7618 17.0731 16.3408 16.7069 16.7069C16.3408 17.0731 15.7618 17.0957 15.369 16.7753L15.2929 16.7069L13.413 14.827L13.3446 14.7509C13.0243 14.3581 13.0469 13.7791 13.413 13.413Z" fill="#686583" style="fill-opacity:1;"/></svg>