<svg class="w-6 h-6" width="24" height="24" viewBox="0 0 24 24" fill="none" xmlns="http://www.w3.org/2000/svg"><path d="M7.0004 6C8.06112 6.0001 9.07847 6.42182 9.82853 7.17188C10.4756 7.81907 10.8777 8.66511 10.976 9.56641C11.5754 9.92476 12.0737 10.4367 12.4174 11.0537C12.8732 11.8721 13.0274 12.8247 12.8529 13.7451C12.6784 14.6656 12.1862 15.4961 11.4623 16.0908C10.7404 16.6838 9.83387 17.0045 8.89981 16.999V17H4.97501C4.04941 16.9769 3.16005 16.6336 2.45938 16.0283C1.75876 15.4231 1.29056 14.593 1.13321 13.6807C0.975897 12.7682 1.13957 11.8294 1.59708 11.0244C1.94071 10.4199 2.43337 9.91791 3.02384 9.56543C3.12227 8.66453 3.52448 7.81883 4.1713 7.17188C4.92144 6.42173 5.93953 6 7.0004 6ZM7.0004 8C6.46997 8 5.96043 8.21086 5.58536 8.58594C5.21047 8.96098 5.0004 9.4697 5.0004 10V10.2002C5.00032 10.6142 4.74436 10.9855 4.35782 11.1338C3.9258 11.2996 3.56505 11.6104 3.33634 12.0127C3.10756 12.4152 3.02526 12.8846 3.10392 13.3408C3.18259 13.797 3.41669 14.212 3.767 14.5146C4.11733 14.8173 4.56202 14.9885 5.02481 15H8.90763L9.08243 14.9941C9.48831 14.9617 9.87605 14.8052 10.1928 14.5449C10.5546 14.2476 10.8008 13.8331 10.8881 13.373C10.9754 12.9129 10.8982 12.4366 10.6703 12.0273C10.4424 11.6181 10.0782 11.3019 9.64103 11.1338C9.25487 10.9853 9.00048 10.6139 9.0004 10.2002V10L8.99063 9.80273C8.94527 9.34481 8.74264 8.91421 8.41446 8.58594C8.03948 8.21096 7.53069 8.0001 7.0004 8Z" fill="#686583" style="fill-opacity:1;"/><path d="M6 22V16C6 15.4477 6.44772 15 7 15C7.55228 15 8 15.4477 8 16V22C8 22.5523 7.55228 23 7 23C6.44772 23 6 22.5523 6 22Z" fill="#686583" style="fill-opacity:1;"/><path d="M12 22V19C12 18.4477 12.4477 18 13 18C13.5523 18 14 18.4477 14 19V22C14 22.5523 13.5523 23 13 23C12.4477 23 12 22.5523 12 22Z" fill="#686583" style="fill-opacity:1;"/><path d="M13.0004 2C13.2779 2.00023 13.5429 2.11618 13.7318 2.31934L17.7104 6.5957L17.8139 6.70898C18.045 6.98095 18.2002 7.31052 18.2611 7.66406C18.3308 8.06827 18.2737 8.48435 18.099 8.85547C18.0031 9.05935 17.8731 9.24322 17.7172 9.40234L19.7397 11.627H19.7387C19.9988 11.9022 20.1768 12.245 20.2494 12.6172C20.3243 13.0015 20.2842 13.3997 20.1352 13.7617C20.0368 14.0006 19.8923 14.2157 19.7133 14.3984L21.7397 16.627H21.7387C21.9988 16.9022 22.1768 17.245 22.2494 17.6172C22.3243 18.0015 22.2842 18.3997 22.1352 18.7617C21.9861 19.1237 21.7343 19.4342 21.4106 19.6543C21.0868 19.8744 20.7053 19.9945 20.3139 20H12.0004C11.4481 20 11.0004 19.5523 11.0004 19C11.0004 18.4477 11.4481 18 12.0004 18H20.2856C20.2768 17.9911 20.2685 17.9819 20.2602 17.9727L17.2602 14.6729C16.994 14.38 16.9254 13.9576 17.0854 13.5957C17.2455 13.2337 17.6046 13 18.0004 13H18.2856C18.2768 12.9911 18.2685 12.9819 18.2602 12.9727L15.2602 9.67285C14.994 9.38004 14.9254 8.95763 15.0854 8.5957C15.2455 8.23372 15.6046 8 16.0004 8H16.1996L16.2895 8.00391L16.268 7.98145L12.9984 4.4668L12.3314 5.18262C11.9546 5.58636 11.3211 5.60825 10.9174 5.23145C10.5136 4.85462 10.4918 4.22114 10.8686 3.81738L12.2689 2.31738L12.3432 2.24609C12.5245 2.08813 12.7576 1.9999 13.0004 2Z" fill="#686583" style="fill-opacity:1;"/></svg>