<svg class="w-6 h-6" width="24" height="24" viewBox="0 0 24 24" fill="none" xmlns="http://www.w3.org/2000/svg"><path d="M20 5C20 4.73478 19.8946 4.48051 19.707 4.29297C19.5195 4.10543 19.2652 4 19 4H5C4.73478 4 4.48051 4.10543 4.29297 4.29297C4.10543 4.48051 4 4.73478 4 5V18.5859L6.29297 16.293L6.36621 16.2266C6.54417 16.0807 6.76791 16 7 16H19C19.2652 16 19.5195 15.8946 19.707 15.707C19.8946 15.5195 20 15.2652 20 15V5ZM22 15C22 15.7957 21.6837 16.5585 21.1211 17.1211C20.5585 17.6837 19.7957 18 19 18H7.41406L3.70703 21.707C3.42103 21.993 2.99086 22.0786 2.61719 21.9238C2.24359 21.769 2 21.4044 2 21V5C2 4.20435 2.3163 3.44152 2.87891 2.87891C3.44152 2.3163 4.20435 2 5 2H19C19.7956 2 20.5585 2.3163 21.1211 2.87891C21.6837 3.44152 22 4.20435 22 5V15Z" fill="#686583" style="fill-opacity:1;"/><path d="M9 10V9H8C7.44772 9 7 8.55228 7 8C7 7.44772 7.44772 7 8 7H10L10.1025 7.00488C10.6067 7.05621 11 7.48232 11 8V10C11 10.7957 10.6837 11.5585 10.1211 12.1211C9.55849 12.6837 8.79565 13 8 13C7.44772 13 7 12.5523 7 12C7 11.4477 7.44772 11 8 11C8.26522 11 8.51949 10.8946 8.70703 10.707C8.89457 10.5195 9 10.2652 9 10Z" fill="#686583" style="fill-opacity:1;"/><path d="M15 10V9H14C13.4477 9 13 8.55228 13 8C13 7.44772 13.4477 7 14 7H16L16.1025 7.00488C16.6067 7.05621 17 7.48232 17 8V10C17 10.7957 16.6837 11.5585 16.1211 12.1211C15.5585 12.6837 14.7957 13 14 13C13.4477 13 13 12.5523 13 12C13 11.4477 13.4477 11 14 11C14.2652 11 14.5195 10.8946 14.707 10.707C14.8946 10.5195 15 10.2652 15 10Z" fill="#686583" style="fill-opacity:1;"/></svg>