<svg class="w-6 h-6" width="24" height="24" viewBox="0 0 24 24" fill="none" xmlns="http://www.w3.org/2000/svg"><path d="M13.1358 2.49605C13.414 2.01906 14.0269 1.85757 14.5039 2.1357C14.9809 2.41395 15.1424 3.02684 14.8643 3.50387L4.36428 21.5039C4.08603 21.9809 3.47314 22.1424 2.99612 21.8642C2.51912 21.586 2.35763 20.9731 2.63576 20.4961L13.1358 2.49605Z" fill="#686583" style="fill-opacity:1;"/><path d="M9.49607 2.13568C9.94319 1.87499 10.5093 2.00059 10.8076 2.4101L10.8642 2.49603L21.3642 20.496L21.4111 20.5869C21.621 21.0482 21.4511 21.6033 21.0039 21.8642C20.5568 22.1249 19.9907 21.9993 19.6924 21.5898L19.6357 21.5038L9.13572 3.50385L9.08885 3.41303C8.879 2.95166 9.04884 2.39657 9.49607 2.13568Z" fill="#686583" style="fill-opacity:1;"/><path d="M12 14C12.3557 14 12.6851 14.1889 12.8643 14.4961L16.3643 20.4961L16.4112 20.5869C16.621 21.0483 16.4512 21.6034 16.0039 21.8643C15.5568 22.125 14.9907 21.9993 14.6924 21.5898L14.6358 21.5039L12 16.9854L9.36428 21.5039C9.08603 21.9809 8.47314 22.1424 7.99612 21.8643C7.51912 21.586 7.35763 20.9731 7.63576 20.4961L11.1358 14.4961L11.21 14.3867C11.3979 14.1446 11.6887 14 12 14Z" fill="#686583" style="fill-opacity:1;"/><path d="M22 20C22.5523 20 23 20.4477 23 21C23 21.5523 22.5523 22 22 22H2C1.44772 22 1 21.5523 1 21C1 20.4477 1.44772 20 2 20H22Z" fill="#686583" style="fill-opacity:1;"/></svg>